<?xml version="1.0" encoding="UTF-8" standalone="no"?>
<!-- Created with Inkscape (http://www.inkscape.org/) -->

<svg
    width="31.999998"
    height="31.999998"
    viewBox="0 0 8.466666 8.4666661"
    version="1.1"
    id="svg279"
    xmlns="http://www.w3.org/2000/svg"
>
  <defs
     id="defs276">
    <linearGradient
       id="linearGradient900">
      <stop
         style="stop-color:#ffffff;stop-opacity:1;"
         offset="0"
         id="stop898" />
    </linearGradient>
    <clipPath
       clipPathUnits="userSpaceOnUse"
       id="clipPath261">
      <path
         style="stroke:none;stroke-width:1"
         d="m 82.909021,84.733707 h 52.999999 13 l 4,-7.99e-4 c 1.333,-0.0042 2.6694,0.0029 4,-0.08871 1.6815,-0.115795 3.3391,-0.3883 5,-0.665098 1.3396,-0.223297 2.6733,-0.457 4,-0.748502 l 2,-0.540099 c 1.7092,-0.5158 3.4093,-1.137301 5,-1.9529 2.8465,-1.459599 5.4474,-3.451901 7.3511,-6.043999 0.6779,-0.9231 1.2415,-1.926302 1.7291,-2.960701 0.602,-1.276699 1.0728,-2.623799 1.3908,-3.999201 l 0.344,-1.999999 0.092,-0.999999 0.078,-2 0.0109,-3.000001 c -0.0181,-1.667 -0.019,-3.356299 -0.336,-5.000001 l -0.51386,-1.999991 -0.3744,-0.999199 -0.4599,-0.9969 -0.5401,-0.988501 -1.3295,-1.9105 c -0.7514,-0.918498 -1.5972,-1.741098 -2.5362,-2.4668 -0.9082,-0.7018 -1.8987,-1.276298 -2.9098,-1.813299 -0.9707,-0.515499 -1.9799,-0.940801 -2.9961,-1.356399 l -1,-0.364201 -2,-0.5895 -1,-0.2253 -3,-0.5348 c -1.6608,-0.277289 -3.3186,-0.549299 -5,-0.665101 -1.6627,-0.114499 -3.3345,-0.08681 -5,-0.08949 h -7 -22 -6 l -4,-0.01538 c -1.9511,-0.06141 -4.0513,-0.1091 -5.7716,-1.1636 l -1.4815,-1.254601 -0.5486,-0.7948 -0.3974,-0.879599 -0.25461,-1.888101 0.5255,-1.856499 1.25,-1.544001 0.8271,-0.575599 1.8704,-0.709902 0.9853,-0.169788 0.9962,-0.08949 1.9992,-0.05399 2,-0.0045 h 4 11 35 l 0.98771,-1.671298 0.35799,-0.4877 0.6744,-1.001501 2.1103,-2.8441 5.2392,-6.993899 c 0.94081,-1.268799 1.8831,-2.5361 2.7739,-3.841001 l 0.6296,-1.001501 0.3272,-0.4877 0.8997,-1.6712979 h -50.99999 -11 l -4,7.692e-4 c -1.3328,0.00422 -2.6696,-0.00452 -4,0.08874 -2.0246,0.1419171 -4.0139,0.5093995 -6,0.9143504 -2.0235,0.4125793 -4.0499,0.8530593 -5.999999,1.5439403 -1.372699,0.4864 -2.690999,1.093 -3.9992,1.729199 l -1.986098,1.075602 -1.921341,1.284698 -0.90817,0.753099 -0.856491,0.822601 -1.53935,1.8302 -1.306329,1.9607 -1.065581,1.9961 -0.422838,1.000001 -0.60108,2 c -0.295206,1.3125 -0.346052,2.6607 -0.378091,4 l -0.01478,3.000001 c 0.0072,1.998498 -0.03828,4.035598 0.389659,5.999999 l 0.57948,2 0.397371,0.999999 0.472229,0.999202 0.527769,0.996897 1.270842,1.960701 1.574839,1.8302 1.830251,1.5749 1.960689,1.274702 0.9969,0.538597 c 1.8981,1.000701 3.920101,1.781903 5.999199,2.3101 0.9891,0.251289 1.9962,0.413701 3,0.591102 l 2,0.333299 c 1.3279,0.20909 2.6556,0.428002 4,0.5008 1.9985,0.108285 3.9993,0.08871 6,0.08949 h 6 23 5 l 3,0.01538 1.9961,0.09342 0.9885,0.119596 0.9714,0.2052 0.9352,0.3087 1.6705,1.000002 0.6767,0.691297 0.5239,0.794 0.4862,1.797102 -0.0803,0.932099 -0.3048,0.898901 -1.19671,1.5409 -1.72609,0.999998 -0.95991,0.285493 -1.98149,0.259312 -0.99921,0.0393 -2,0.0184 -4,8.02e-4 h -13.99999 -24 -4 l -3.00001,0.0045 -1.9992,0.05399 -0.996894,0.08949 -1.964498,0.455302 -1.865801,0.999999 -0.873398,0.714502 -1.6343,1.740697 -0.777781,0.960702 -1.51389,1.981501 -3.743831,4.999199 -2.147379,2.9753 -1.173611,1.8642 -0.753853,1.489201 -0.555558,1.671298 M 200.90902,8.7337085 V 84.733707 h 52 13 l 2,-0.0045 0.999,-0.01478 1.986,-0.128796 0.976,-0.169788 1.865,-0.709899 c 0.972,-0.544298 1.76,-1.308699 2.509,-2.120299 l 1.545,-1.871201 1.544,-1.981501 c 1.825,-2.324198 3.664,-4.634898 5.443,-6.994598 l 2.113,-2.844101 0.674,-1.0015 0.358,-0.487701 0.988,-1.671298 h -65 V 54.733719 h 32 6 l 3,-0.0045 1.999,-0.05399 0.997,-0.08949 0.989,-0.169788 1.925,-0.709899 c 1.378,-0.7404 2.451,-1.874699 3.475,-3.030801 0.841,-0.949197 1.619,-1.955799 2.415,-2.942199 1.813,-2.2463 3.64,-4.489299 5.319,-6.838698 l 0.978,-1.489201 0.903,-1.671301 h -60 v -9.000001 h 50 l 0.988,-1.671298 0.358,-0.4877 0.674,-1.001501 2.11,-2.8441 3.754,-4.995398 3.062,-3.975302 1.353,-1.8642 0.604,-1.001501 0.326,-0.4877 0.771,-1.6712979 h -87 m 102.00001,0 V 84.733822 h 46.99999 8.99999 l 4.00001,-7.99e-4 c 0.99701,-0.0069 2.00099,0.01599 2.99601,-0.05779 l 1.965,-0.259311 1.86498,-0.7099 c 0.97201,-0.544298 1.76002,-1.308699 2.50902,-2.120299 l 1.54499,-1.8712 1.54401,-1.981501 c 1.82499,-2.324199 3.664,-4.634899 5.44298,-6.994599 l 2.11301,-2.8441 0.674,-1.001501 0.358,-0.4877 0.98799,-1.671298 h -59 V 8.7337085 h -22.99998 m 97,19.9999985 h 55.99999 4.00001 l 2.99998,0.0039 c 1.00202,0.01387 1.99601,0.03511 2.99601,0.104907 l 1.95999,0.324802 1.81102,0.745398 0.77999,0.563301 0.652,0.6913 0.74099,1.670599 0.0241,0.9205 -0.67499,1.831 -0.65001,0.8272 -0.80201,0.7137 -0.89798,0.575601 -0.95801,0.4244 -1.98102,0.455299 -0.999,0.08949 -1.99999,0.05399 -2.99999,0.0045 h -5.00112 -56.00001 v 45.999999 h 52 11.00001 l 4.00001,-7.99e-4 c 1.333,-0.0042 2.66898,0.0029 3.99998,-0.08871 1.68201,-0.115796 3.33902,-0.388301 5.00001,-0.665098 1.33701,-0.222905 2.67999,-0.436203 4.00001,-0.748502 1.35399,-0.320298 2.69498,-0.724 3.99998,-1.207499 l 2.00002,-0.807899 0.999,-0.477602 1.986,-1.1374 1.90998,-1.398898 1.711,-1.652802 1.39902,-1.854898 1.07498,-1.963801 0.811,-1.9961 0.32,-1.000001 0.46002,-2 c 0.28986,-1.646398 0.32298,-3.3326 0.32099,-4.999998 -10e-4,-1.3306 -0.009,-2.681 -0.20601,-4.000003 -0.20813,-1.393098 -0.609,-2.738297 -1.24299,-3.999197 l -1.196,-1.985401 -0.74101,-0.971401 -0.81799,-0.935199 -1.80701,-1.674402 -1.82399,-1.249199 -1.48601,-0.7137 -1.67098,-0.4715 v -1.999999 l 1.65599,-0.4715 0.463,-0.248393 1.737,-1.021598 1.59101,-1.486899 1.325,-1.815601 1.01399,-1.959901 0.74599,-1.9961 c 0.32401,-0.9787 0.58302,-1.991301 0.79401,-2.999998 0.276,-1.318701 0.464,-2.649103 0.399,-4.000003 -0.082,-1.710199 -0.54501,-3.385599 -1.08801,-4.999998 l -0.74599,-2 -0.44901,-0.999202 -0.528,-0.996897 -1.333,-1.960701 -0.80599,-0.9383 -0.88299,-0.8919 -1.907,-1.5749 c -1.24302,-0.912199 -2.60002,-1.620802 -3.98502,-2.285502 l -1.99999,-0.803999 -0.99999,-0.328698 -1,-0.296292 -2.00002,-0.495371 -2.99999,-0.6234487 C 472.58303,9.2818072 471.25401,9.0386357 469.90901,8.9041659 468.57903,8.7712072 467.24402,8.749339 465.90903,8.7375151 l -4.00001,-0.00392 h -27.99999 -7.99999 l -4.00002,7.691e-4 c -2.34201,0.015986 -4.82099,-0.093867 -6.96099,1.0270094 -1.40801,0.7376314 -2.53201,1.8531204 -3.57502,3.0308214 l -0.79899,0.960699 -2.32599,2.9807 -2.422,3.000001 c -1.08102,1.315 -2.168,2.6184 -3.19602,3.975299 l -1.28,1.8642 -0.828,1.489201 -0.61298,1.671298 m 107.99999,-19.9999979 1.08599,1.6712979 0.431,0.4877 0.80402,1.001501 c 1.182,1.319699 2.437,2.569399 3.66898,3.841001 l 1.92003,1.998501 1.80498,1.999999 3.454,4 4.662,4.999998 4.33899,5.000001 5.66,5.999999 4.34001,5.000001 4.741,5.000001 c 1.50299,1.622 2.93399,3.3059 4.355,4.999999 1.55599,1.8555 3.28901,3.683899 4.13101,5.999999 0.46499,1.275903 0.55099,2.655901 0.58398,4.000003 l 0.0181,4.999998 v 15 h 23.00002 v -15 l 0.006,-2.999999 0.0151,-1.000001 0.11402,-2 0.14599,-0.999998 0.57901,-2.000003 c 0.59499,-1.469498 1.501,-2.768599 2.48501,-4 1.11899,-1.398898 2.38197,-2.673398 3.58198,-3.999999 l 1.79,-2 3.45101,-4 2.75898,-3.000001 1.79003,-2 3.43997,-3.999999 2.69,-2.999999 1.73103,-1.999999 1.70599,-2 3.56298,-4.000003 3.43702,-3.999999 3.56301,-4 3.422,-3.9954 2.45099,-2.8441 0.77998,-1.001501 0.41903,-0.4877 1.083,-1.6712979 h -18.00001 c -1.99899,0 -4.001,-0.029862 -6,0.019304 -1.32301,0.032455 -2.71099,0.1020717 -3.96101,0.5841013 l -1.86899,0.9999986 -0.88399,0.714511 -0.85802,0.830199 -1.67399,1.8712 -0.83401,0.9853 -3.309,3.9954 -8.03498,9.999999 -4.12601,5.000001 c -1.252,1.573401 -2.45301,3.183601 -3.59401,4.839501 l -0.95599,1.4892 -0.90001,1.671298 c -1.30699,-1.334799 -2.63498,-2.6457 -3.87498,-4.044797 l -4.28002,-4.9552 -3.56301,-4.000003 -2.553,-2.999998 -3.45798,-4 -1.69199,-2 -3.44903,-3.9992 -1.70898,-1.981501 -1.70602,-1.8712 -0.88498,-0.830199 -0.92,-0.714511 -1.92501,-0.9999986 c -1.581,-0.5977109 -3.323,-0.5675508 -4.98499,-0.5987605 l -2.00002,-0.00452 h -2.99998 -19.00001 M 421.91026,64.733715 V 54.733713 h 39 l 2.99999,0.0039 0.999,0.01146 1.98599,0.09342 0.97101,0.119597 0.93499,0.205199 1.67502,0.745401 1.24999,1.254599 0.42201,0.794 0.385,1.797102 -0.26996,1.830999 -0.96,1.5409 -1.541,0.999999 -1.87101,0.455302 -0.986,0.08949 c -1.33101,0.0612 -2.66201,0.0539 -3.99501,0.05861 h -1.99999 z"
         id="path263" />
    </clipPath>
  </defs>
  <g
     id="layer2">
    <path
       style="fill:#098fb9;fill-opacity:1;stroke:#000000;stroke-width:0;stroke-dasharray:none;stroke-opacity:1"
       id="rect521"
       width="8.4666653"
       height="8.4666653"
       x="5.5775848e-07"
       y="5.5775848e-07"
       d="M 1.5000006,5.5775848e-7 H 6.9666658 A 1.5,1.5 45 0 1 8.4666658,1.5000006 v 5.4666652 a 1.5,1.5 135 0 1 -1.5,1.5 H 1.5000006 A 1.5,1.5 45 0 1 5.5775848e-7,6.9666658 V 1.5000006 A 1.5,1.5 135 0 1 1.5000006,5.5775848e-7 Z" />
  </g>
  <g
     id="layer1"
     transform="translate(-5.2927743,-7.0089205)">
    <rect
       style="color:#098fb9;display:inline;fill:#ffffff;fill-opacity:1;stroke-width:2.51156"
       id="rect247"
       width="104.91368"
       height="86.57756"
       x="79.512398"
       y="4.1718731"
       clip-path="url(#clipPath261)"
       transform="matrix(0.05633998,0,0,0.05633998,1.9952831,8.6095309)" />
  </g>
</svg>
