<?xml version="1.0" encoding="UTF-8"?>
<!-- Generated by Pixelmator Pro 3.2.3 -->
<svg width="256" height="256" viewBox="0 0 256 256" xmlns="http://www.w3.org/2000/svg">
    <path id="bg-shape" fill="#000000" fill-rule="evenodd" stroke="none" d="M 128 257 C 57.307625 257 0 199.692368 0 129 C 0 58.307632 57.307625 1 128 1 C 198.692368 1 256 58.307632 256 129 C 256 199.692368 198.692368 257 128 257 Z M 42 193.498047 L 131.638672 193.498047 L 153.625 193.498047 L 160.390625 193.496094 C 162.645096 193.488983 164.905777 193.500656 167.15625 193.345703 C 170.000137 193.149872 172.804199 192.688843 175.613281 192.220703 C 177.878922 191.843048 180.133102 191.44809 182.376953 190.955078 L 185.759766 190.042969 C 188.650513 189.170593 191.526413 188.117691 194.216797 186.738281 C 199.031052 184.269669 203.428726 180.901566 206.648438 176.517578 C 207.794968 174.956329 208.749527 173.259232 209.574219 171.509766 C 210.592361 169.350494 211.38797 167.072296 211.925781 164.746094 L 212.507813 161.363281 L 212.664063 159.671875 L 212.794922 156.289063 L 212.814453 151.214844 C 212.783844 148.395447 212.782242 145.539734 212.246094 142.759766 L 211.376953 139.376953 L 210.744141 137.685547 L 209.964844 136 L 209.052734 134.328125 L 206.802734 131.097656 C 205.531891 129.54422 204.101822 128.153168 202.513672 126.925781 C 200.977631 125.738846 199.301849 124.767593 197.591797 123.859375 C 195.950043 122.987503 194.244095 122.267349 192.525391 121.564453 L 190.833984 120.949219 L 187.451172 119.951172 L 185.759766 119.570313 L 180.685547 118.666016 C 177.876648 118.197037 175.074203 117.736877 172.230469 117.541016 C 169.418335 117.347366 166.590271 117.393204 163.773438 117.388672 L 151.933594 117.388672 L 114.726563 117.388672 L 104.578125 117.388672 L 97.8125 117.363281 C 94.512619 117.259415 90.960312 117.179962 88.050781 115.396484 L 85.544922 113.273438 L 84.617188 111.929688 L 83.945313 110.441406 L 83.515625 107.248047 L 84.404297 104.109375 L 86.517578 101.498047 L 87.916016 100.523438 L 91.080078 99.322266 L 92.746094 99.035156 L 94.431641 98.884766 L 97.8125 98.792969 L 101.195313 98.785156 L 107.960938 98.785156 L 126.564453 98.785156 L 185.759766 98.785156 L 187.429688 95.958984 L 188.035156 95.134766 L 189.175781 93.439453 L 192.746094 88.630859 L 201.607422 76.800781 C 203.198593 74.654877 204.792206 72.511658 206.298828 70.304688 L 207.363281 68.611328 L 207.916016 67.787109 L 209.4375 64.958984 L 123.181641 64.958984 L 104.578125 64.958984 L 97.8125 64.960938 C 95.55835 64.968079 93.296982 64.953613 91.046875 65.111328 C 87.622688 65.351349 84.259468 65.973297 80.900391 66.658203 C 77.478065 67.355988 74.050148 68.101059 70.751953 69.269531 C 68.430321 70.092163 66.200836 71.117371 63.988281 72.193359 L 60.628906 74.011719 L 57.378906 76.185547 L 55.84375 77.458984 L 54.394531 78.849609 L 51.791016 81.945313 L 49.582031 85.261719 L 47.779297 88.638672 L 47.064453 90.330078 L 46.048828 93.710938 C 45.549549 95.930756 45.462383 98.211411 45.408203 100.476563 L 45.384766 105.550781 C 45.396935 108.930832 45.319195 112.376846 46.042969 115.699219 L 47.023438 119.082031 L 47.695313 120.771484 L 48.494141 122.462891 L 49.386719 124.148438 L 51.535156 127.464844 L 54.199219 130.560547 L 57.294922 133.222656 L 60.611328 135.378906 L 62.296875 136.291016 C 65.507111 137.98349 68.926987 139.30394 72.443359 140.197266 C 74.116211 140.622284 75.819855 140.897232 77.517578 141.197266 L 80.900391 141.761719 C 83.146248 142.115356 85.390274 142.484299 87.664063 142.607422 C 91.044106 142.790558 94.428726 142.758453 97.8125 142.759766 L 107.960938 142.759766 L 146.859375 142.759766 L 155.316406 142.759766 L 160.390625 142.785156 L 163.765625 142.943359 L 165.4375 143.146484 L 167.082031 143.492188 L 168.662109 144.015625 L 171.488281 145.705078 L 172.632813 146.875 L 173.519531 148.21875 L 174.341797 151.257813 L 174.205078 152.833984 L 173.689453 154.353516 L 171.666016 156.960938 L 168.746094 158.652344 L 167.123047 159.134766 L 163.771484 159.572266 L 162.082031 159.638672 L 158.699219 159.669922 L 151.933594 159.671875 L 128.255859 159.671875 L 87.664063 159.671875 L 80.900391 159.671875 L 75.826172 159.679688 L 72.445313 159.771484 L 70.757813 159.921875 L 67.435547 160.691406 L 64.28125 162.382813 L 62.802734 163.591797 L 60.039063 166.535156 L 58.724609 168.160156 L 56.164063 171.511719 L 49.832031 179.966797 L 46.199219 185 L 44.214844 188.152344 L 42.939453 190.671875 L 42 193.498047 Z"/>
</svg>
