<?xml version="1.0" encoding="UTF-8"?>
<!-- Generated by Pixelmator Pro 3.2.3 -->
<svg width="96" height="96" viewBox="0 0 96 96" xmlns="http://www.w3.org/2000/svg">
    <g id="XMLID2">
        <path id="XMLID6" fill="#ffffff" stroke="none" d="M 0.813935 83.29023 L 49.715546 83.29023 L 61.710278 83.29023 L 65.400963 83.289497 C 66.630875 83.285614 67.86393 83.292175 69.091652 83.207642 C 70.643112 83.100807 72.172539 82.849373 73.705009 82.593979 C 74.941017 82.387947 76.171585 82.172318 77.395699 81.903358 L 79.241043 81.405022 C 80.818069 80.929108 82.386688 80.355667 83.854401 79.603142 C 86.480782 78.256409 88.880547 76.418167 90.637039 74.026512 C 91.26252 73.174789 91.782539 72.249161 92.232445 71.294754 C 92.78788 70.116776 93.222282 68.873848 93.515686 67.604805 L 93.833084 65.75946 L 93.917976 64.836792 L 93.989937 62.991447 L 94 60.223431 C 93.983299 58.685337 93.982475 57.126667 93.689987 55.610073 L 93.215851 53.764736 L 92.870415 52.842804 L 92.446075 51.922993 L 91.947739 51.010929 L 90.721046 49.248165 C 90.027748 48.400696 89.24736 47.641705 88.380959 46.972118 C 87.542984 46.324589 86.629089 45.794514 85.696182 45.299042 C 84.800537 44.823406 83.869377 44.430988 82.931755 44.047531 L 82.009087 43.711491 L 80.163742 43.167576 L 79.241066 42.959698 L 76.473053 42.466251 C 74.940681 42.210403 73.411072 41.959431 71.859695 41.852585 C 70.325562 41.746941 68.783043 41.772488 67.246338 41.770016 L 60.787632 41.770016 L 40.488853 41.770016 L 34.952824 41.770016 L 31.262138 41.755825 C 29.461918 41.699162 27.524118 41.655159 25.936846 40.682201 L 24.56991 39.524616 L 24.063732 38.791279 L 23.697063 37.979694 L 23.462143 36.237598 L 23.947004 34.524658 L 25.100344 33.100052 L 25.863489 32.568962 L 27.589254 31.913956 L 28.49836 31.757301 L 29.417526 31.674728 L 31.262131 31.624916 L 33.107475 31.620766 L 36.798161 31.620766 L 46.947556 31.620766 L 79.241066 31.620766 L 80.15239 30.078705 L 80.482697 29.628716 L 81.10495 28.704659 L 83.052055 26.080482 L 87.886131 19.627411 C 88.754189 18.456726 89.623604 17.28743 90.445526 16.083435 L 91.026436 15.159378 L 91.328339 14.709389 L 92.15847 13.167336 L 45.102215 13.167336 L 34.952824 13.167336 L 31.262138 13.168037 C 30.032406 13.171936 28.798979 13.163872 27.571451 13.249916 C 25.703413 13.380859 23.867939 13.719925 22.035421 14.093567 C 20.168396 14.474236 18.298697 14.880661 16.49939 15.518112 C 15.232842 15.966896 14.016486 16.526596 12.809443 17.113594 L 10.976925 18.106026 L 9.204158 19.291382 L 8.36622 19.986244 L 7.575959 20.745232 L 6.155643 22.433907 L 4.950331 24.242989 L 3.967148 26.08474 L 3.577009 27.007408 L 3.022408 28.852753 C 2.750031 30.063759 2.703113 31.307701 2.673555 32.543438 L 2.65992 35.311455 C 2.666558 37.155411 2.624596 39.034985 3.019444 40.847481 L 3.554117 42.692825 L 3.920758 43.615498 L 4.356471 44.537434 L 4.84343 45.457237 L 6.016001 47.266323 L 7.469059 48.954994 L 9.157775 50.408112 L 10.966851 51.584244 L 11.886665 52.081192 C 13.637982 53.004509 15.503628 53.725307 17.421957 54.212654 C 18.334568 54.444515 19.263794 54.594368 20.189972 54.758049 L 22.035315 55.065575 C 23.260527 55.258495 24.485556 55.460484 25.726002 55.527649 C 27.569958 55.62756 29.41604 55.609501 31.262032 55.610218 L 36.798061 55.610218 L 58.019505 55.610218 L 62.632862 55.610218 L 65.400879 55.624409 L 67.24263 55.710606 L 68.154686 55.820953 L 69.05098 56.010284 L 69.913857 56.295116 L 71.455177 57.217789 L 72.079552 57.855629 L 72.562935 58.58823 L 73.011543 60.246368 L 72.937447 61.106388 L 72.656219 61.935776 L 71.55204 63.357521 L 69.959427 64.280197 L 69.073753 64.54361 L 67.245491 64.782867 L 66.323547 64.81913 L 64.47821 64.836105 L 60.787521 64.836845 L 47.870117 64.836845 L 25.726002 64.836845 L 22.035315 64.836845 L 19.267286 64.840996 L 17.422682 64.890816 L 16.502874 64.973381 L 14.690292 65.393478 L 12.968765 66.316147 L 12.162906 66.975403 L 10.654984 68.58149 L 9.937349 69.467911 L 8.540523 71.296181 L 5.086199 75.908798 L 3.104875 78.654022 L 2.022014 80.374069 L 1.326455 81.748108 L 0.813858 83.290176"/>
    </g>
</svg>
